<svg xmlns="http://www.w3.org/2000/svg" version="1.1" viewBox="0 0 539 97.1">
  <defs>
    <style>
      .cls-1 {
        fill: #d1263e;
      }

      .cls-2 {
        fill: #96bfc2;
      }

      .cls-3 {
        fill: #f99d23;
      }
    </style>
  </defs>
  <!-- Generator: Adobe Illustrator 28.7.1, SVG Export Plug-In . SVG Version: 1.2.0 Build 142)  -->
  <g>
    <g id="Layer_1">
      <g>
        <polygon points="168 56.4 168 8.5 158.2 8.5 142.7 29.9 127.1 8.5 117.2 8.5 117.2 56.4 125.5 56.4 125.5 19.8 141.8 42.1 143.1 42.1 159.8 19.9 159.8 56.4 168 56.4"/>
        <g>
          <rect x="176.7" y="22.7" width="7.5" height="33.6"/>
          <path d="M180.4,17.2c2.2,0,4.5-1.4,4.5-4.5s-2.3-4.5-4.5-4.5-4.5,1.4-4.5,4.5,2.4,4.5,4.5,4.5Z"/>
        </g>
        <path d="M260.5,50.6l.7,5.7h7V8.5h-7.5v20.5l-.9-1.6c-2-3.4-7.6-5.3-10.9-5.3-10.5,0-17,6.7-17,17.5s6.9,17.5,17.2,17.5,7.9-.9,10.7-5.3l.7-1.2h0ZM249.6,50.2c-5.9,0-10.3-4.6-10.3-10.6s4.2-10.6,10.3-10.6,10.5,4.5,10.5,10.6-4.4,10.6-10.5,10.6Z"/>
        <polygon points="321.7 22.8 313.4 50 305.5 22.8 298.8 22.8 291 50 282.7 22.8 274.3 22.8 286 56.5 295.2 56.5 298.7 46.6 302.2 33.3 305.8 46.6 309.2 56.5 318.4 56.5 330.1 22.8 321.7 22.8"/>
        <path d="M350.3,22.2c-10,0-17.3,7.3-17.3,17.5s7.1,17.5,17.4,17.5,17.5-7.2,17.5-17.5-7.4-17.5-17.6-17.5ZM350.4,50.3c-6.8,0-9.9-5.5-9.9-10.6s3.4-10.7,9.9-10.7,9.9,5.4,9.9,10.7-3.1,10.6-9.9,10.6Z"/>
        <path d="M391,29.4c2.8,0,4.4.7,6,2l3.4-6.5c-1.9-1.8-5.1-2.9-8.3-2.9s-6.7.6-9.3,4.7l-.7,1.1-.8-4.9h-7v33.4h7.5v-17.6c0-5.8,3.5-9.3,9.2-9.3h0Z"/>
        <polygon points="435.3 56.3 419.2 38.6 433.3 22.9 424 22.9 411.6 37.6 411.6 8.5 404.1 8.5 404.1 56.3 411.6 56.3 411.6 39.9 425.9 56.3 435.3 56.3"/>
        <g>
          <rect x="440" y="22.7" width="7.5" height="33.6"/>
          <path d="M443.7,8.2c-2.2,0-4.5,1.4-4.5,4.5s2.3,4.5,4.5,4.5,4.5-1.4,4.5-4.5-2.3-4.5-4.5-4.5Z"/>
        </g>
        <path d="M525,28.6l3.8-4.8-5.5-4.1-3.4,4.3-.4-.3c-2.5-1.7-5.4-1.9-7.6-1.9-10,0-17,7-17,17s6.5,16.8,17,16.8,9.2,2.3,9.2,7.4-3.7,7.9-9.2,7.9-9.2-3.1-9.5-7.4h-7.5c.3,8.5,7.2,14.4,17,14.4s16.8-6,16.8-14.9-2.1-8.6-6.8-10.9l-.9-.5,1-.4c6.5-3,7-10.2,7-12.4,0-4-1.1-7.2-3.5-9.9l-.5-.3h0ZM511.9,48.8c-5.6,0-9.5-4.1-9.5-10.1s4-10.2,9.5-10.2,9.4,4.3,9.4,10.2-3.9,10.1-9.4,10.1Z"/>
        <path d="M474.6,22.4c-4,0-7.4,1.6-11,5l-.7.7v-5.2h-7.3v33.5h7.5v-17.1c0-5.8,4-10.1,9.3-10.1s8.8,3.8,8.8,9.7v17.5h7.5v-17.6c0-9.9-5.7-16.4-14.1-16.4h0Z"/>
        <path d="M211.3,22.4c-4,0-7.4,1.6-11,5l-.7.7v-5.2h-7.3v33.5h7.5v-17.1c0-5.8,4-10.1,9.3-10.1s8.8,3.8,8.8,9.7v17.5h7.5v-17.6c0-9.9-5.7-16.4-14.1-16.4Z"/>
        <polygon class="cls-2" points="89.3 3.8 57.3 3.9 73.2 14.3 73.2 37.2 89.3 26.4 89.3 3.8"/>
        <polygon class="cls-1" points="73.2 37.2 41.3 37.3 57.1 47.7 57.1 70.6 73.2 59.8 73.2 37.2"/>
        <polygon class="cls-3" points="41.3 14.7 9.3 14.8 25.2 25.3 25.2 48.1 41.3 37.3 41.3 14.7"/>
      </g>
      <g>
        <path d="M285.6,86.4h-1.3v-2.1c-.5.7-1.1,1.3-1.9,1.7-.8.4-1.6.6-2.6.6s-1.7-.2-2.4-.5c-.7-.3-1.3-.8-1.7-1.4-.4-.6-.6-1.3-.6-2.1s.2-1.5.7-2.1c.4-.6,1-1.1,1.8-1.5s1.6-.5,2.6-.5,1.4,0,2,.3c.7.2,1.3.4,1.8.7v-.9c0-.8-.2-1.4-.5-2s-.8-1-1.4-1.3c-.6-.3-1.2-.4-2-.4s-1.3.1-1.9.3c-.6.2-1.2.6-1.8,1l-.6-1.3c.7-.5,1.4-.8,2.2-1.1.8-.2,1.6-.4,2.3-.4s2,.2,2.7.6,1.3,1,1.8,1.8c.4.8.6,1.7.6,2.8v7.6ZM280.1,85.2c.7,0,1.4-.2,2-.5s1.1-.8,1.4-1.3.6-1.2.6-2v-.4c-.5-.4-1.1-.7-1.7-.9-.6-.2-1.2-.3-1.9-.3-1.1,0-1.9.3-2.6.8-.7.5-1,1.2-1,2s.1,1,.4,1.4c.3.4.7.7,1.2,1,.5.2,1.1.4,1.7.4Z"/>
        <path d="M309.7,86.4h-1.8l-4.7-8h-5.5v8h-1.7v-18.9h6.9c1.3,0,2.4.2,3.3.7.9.4,1.7,1.1,2.2,1.9.5.8.8,1.8.8,2.9s-.4,2.5-1.1,3.4c-.8.9-1.8,1.5-3.2,1.8l4.8,8.2ZM297.7,76.9h5.2c1.4,0,2.6-.4,3.4-1.1.8-.7,1.3-1.7,1.3-2.9s-.4-2.2-1.3-2.9c-.8-.7-2-1.1-3.4-1.1h-5.2v7.9Z"/>
        <path d="M323.7,84.8c-1.5,1.2-3.3,1.8-5.1,1.8s-2.5-.3-3.5-.9c-1-.6-1.8-1.4-2.4-2.4s-.9-2.1-.9-3.4.3-2.3.8-3.3,1.3-1.7,2.3-2.3,2-.8,3.3-.8,2.3.3,3.3.9c.9.6,1.7,1.4,2.2,2.4s.8,2.2.8,3.6v.4h-10.9c.1.9.4,1.7.9,2.3.5.7,1.1,1.2,1.9,1.5s1.6.6,2.5.6c1.5,0,3-.5,4.2-1.5l.7,1.1ZM313.4,79.5h9.5c0-.9-.3-1.7-.7-2.4s-1-1.2-1.7-1.6c-.7-.4-1.5-.6-2.3-.6s-1.7.2-2.4.6c-.7.4-1.3.9-1.7,1.6-.4.7-.7,1.5-.7,2.3Z"/>
        <path d="M337.3,86.4h-1.3v-2.1c-.5.7-1.1,1.3-1.9,1.7-.8.4-1.6.6-2.6.6s-1.7-.2-2.4-.5c-.7-.3-1.3-.8-1.7-1.4-.4-.6-.6-1.3-.6-2.1s.2-1.5.7-2.1c.4-.6,1-1.1,1.8-1.5s1.6-.5,2.6-.5,1.4,0,2,.3c.7.2,1.3.4,1.8.7v-.9c0-.8-.2-1.4-.5-2s-.8-1-1.4-1.3c-.6-.3-1.2-.4-2-.4s-1.3.1-1.9.3c-.6.2-1.2.6-1.8,1l-.6-1.3c.7-.5,1.4-.8,2.2-1.1.8-.2,1.6-.4,2.3-.4s2,.2,2.7.6,1.3,1,1.8,1.8c.4.8.6,1.7.6,2.8v7.6ZM331.7,85.2c.7,0,1.4-.2,2-.5s1.1-.8,1.4-1.3.6-1.2.6-2v-.4c-.5-.4-1.1-.7-1.7-.9-.6-.2-1.2-.3-1.9-.3-1.1,0-1.9.3-2.6.8-.7.5-1,1.2-1,2s.1,1,.4,1.4c.3.4.7.7,1.2,1,.5.2,1.1.4,1.7.4Z"/>
        <path d="M342.7,92.7h-1.5v-18.9h1.4v2.4c.6-.8,1.3-1.5,2.2-2s1.9-.7,3-.7,2.3.3,3.3.9,1.7,1.3,2.3,2.3c.6,1,.8,2.1.8,3.4s-.3,2.4-.8,3.3c-.6,1-1.3,1.8-2.3,2.3s-2.1.9-3.3.9-2.1-.2-2.9-.7c-.9-.5-1.6-1.1-2.2-1.9v8.6ZM347.8,85.2c1,0,1.8-.2,2.6-.7.8-.4,1.3-1,1.8-1.8.4-.8.6-1.7.6-2.6s-.2-1.9-.6-2.6c-.4-.8-1-1.4-1.8-1.8s-1.6-.7-2.6-.7-1.7.2-2.5.6c-.7.4-1.3,1-1.8,1.7-.5.7-.7,1.5-.7,2.4v.9c0,.9.3,1.7.7,2.4.4.7,1,1.3,1.8,1.7s1.6.6,2.5.6Z"/>
        <path d="M358.3,69.4c-.3,0-.5-.1-.7-.3-.2-.2-.3-.5-.3-.7s0-.5.3-.7c.2-.2.4-.3.7-.3s.6.1.8.3c.2.2.3.4.3.7s-.1.5-.3.7c-.2.2-.5.3-.8.3ZM359.1,86.4h-1.5v-12.6h1.5v12.6Z"/>
        <path d="M370.2,86.1c-.8.4-1.5.5-2.3.5s-1.3-.2-1.8-.5c-.5-.3-.9-.7-1.2-1.3-.3-.6-.4-1.2-.4-2v-7.7h-2.2v-1.4h2.3v-3.1h1.5v3.1h3.8v1.4h-3.8v7.4c0,.8.2,1.4.6,1.9.4.5,1,.7,1.7.7s1.1-.2,1.6-.5l.3,1.3Z"/>
        <path d="M390,84.6c-.6.6-1.3,1.1-2.1,1.5-.8.3-1.7.5-2.6.5s-2.4-.3-3.3-.9-1.8-1.3-2.3-2.3c-.6-1-.9-2.1-.9-3.3s.3-2.4.9-3.4,1.3-1.8,2.3-2.3,2.1-.9,3.3-.9,1.8.2,2.6.5,1.5.8,2.1,1.5l-.9,1c-.5-.5-1-.9-1.7-1.2-.6-.3-1.3-.4-2.1-.4s-1.8.2-2.6.7c-.8.4-1.3,1-1.8,1.8-.4.8-.6,1.6-.6,2.6s.2,1.9.6,2.6c.4.8,1,1.4,1.8,1.8.8.4,1.6.7,2.6.7s1.4-.1,2.1-.4c.7-.3,1.2-.7,1.7-1.2l1,1Z"/>
        <path d="M398.7,86.6c-1.2,0-2.4-.3-3.3-.9s-1.8-1.3-2.3-2.3-.9-2.1-.9-3.4.3-2.4.9-3.3,1.4-1.8,2.3-2.3,2.1-.9,3.3-.9,2.4.3,3.3.9c1,.6,1.8,1.4,2.3,2.3s.9,2.1.9,3.3-.3,2.4-.9,3.3c-.6,1-1.3,1.8-2.3,2.3-1,.6-2.1.9-3.3.9ZM398.7,85.2c.9,0,1.8-.2,2.5-.7.7-.5,1.3-1.1,1.8-1.8.4-.8.6-1.6.6-2.6s-.2-1.9-.6-2.6c-.4-.8-1-1.4-1.8-1.8s-1.6-.7-2.5-.7-1.8.2-2.5.7-1.3,1.1-1.8,1.8c-.4.8-.6,1.6-.6,2.6s.2,1.9.6,2.6c.4.8,1,1.4,1.8,1.8.7.5,1.6.7,2.5.7Z"/>
        <path d="M428.1,86.4h-1.5v-6.8c0-1.5-.3-2.6-1-3.4-.7-.8-1.6-1.2-2.7-1.2s-2.1.4-2.8,1.2c-.7.8-1,1.9-1,3.4v6.8h-1.5v-6.8c0-1.5-.3-2.6-1-3.4-.7-.8-1.6-1.2-2.8-1.2s-2.1.4-2.8,1.2c-.7.8-1,1.9-1,3.4v6.8h-1.5v-12.6h1.3v2.5c.5-.9,1-1.6,1.8-2,.7-.5,1.6-.7,2.7-.7s2.1.3,2.8.8c.8.5,1.3,1.3,1.7,2.3.4-1,1-1.8,1.7-2.3s1.7-.8,2.8-.8,2.8.5,3.6,1.5c.9,1,1.3,2.4,1.3,4.2v7.1Z"/>
        <path d="M433.6,92.7h-1.5v-18.9h1.4v2.4c.6-.8,1.3-1.5,2.2-2s1.9-.7,3-.7,2.3.3,3.3.9,1.7,1.3,2.3,2.3c.6,1,.8,2.1.8,3.4s-.3,2.4-.8,3.3c-.6,1-1.3,1.8-2.3,2.3s-2.1.9-3.3.9-2.1-.2-2.9-.7c-.9-.5-1.6-1.1-2.2-1.9v8.6ZM438.6,85.2c1,0,1.8-.2,2.6-.7.8-.4,1.3-1,1.8-1.8.4-.8.6-1.7.6-2.6s-.2-1.9-.6-2.6c-.4-.8-1-1.4-1.8-1.8s-1.6-.7-2.6-.7-1.7.2-2.5.6c-.7.4-1.3,1-1.8,1.7-.5.7-.7,1.5-.7,2.4v.9c0,.9.3,1.7.7,2.4.4.7,1,1.3,1.8,1.7s1.6.6,2.5.6Z"/>
        <path d="M458.1,86.4h-1.3v-2.1c-.5.7-1.1,1.3-1.9,1.7-.8.4-1.6.6-2.6.6s-1.7-.2-2.4-.5c-.7-.3-1.3-.8-1.7-1.4-.4-.6-.6-1.3-.6-2.1s.2-1.5.7-2.1c.4-.6,1-1.1,1.8-1.5s1.6-.5,2.6-.5,1.4,0,2,.3c.7.2,1.3.4,1.8.7v-.9c0-.8-.2-1.4-.5-2s-.8-1-1.4-1.3c-.6-.3-1.2-.4-2-.4s-1.3.1-1.9.3c-.6.2-1.2.6-1.8,1l-.6-1.3c.7-.5,1.4-.8,2.2-1.1.8-.2,1.6-.4,2.3-.4s2,.2,2.7.6,1.3,1,1.8,1.8c.4.8.6,1.7.6,2.8v7.6ZM452.5,85.2c.7,0,1.4-.2,2-.5s1.1-.8,1.4-1.3.6-1.2.6-2v-.4c-.5-.4-1.1-.7-1.7-.9-.6-.2-1.2-.3-1.9-.3-1.1,0-1.9.3-2.6.8-.7.5-1,1.2-1,2s.1,1,.4,1.4c.3.4.7.7,1.2,1,.5.2,1.1.4,1.7.4Z"/>
        <path d="M473.5,86.4h-1.5v-7.2c0-1.3-.4-2.3-1.1-3.1-.7-.8-1.7-1.1-2.9-1.1s-1.6.2-2.3.6c-.7.4-1.2.9-1.6,1.6-.4.7-.6,1.5-.6,2.4v6.9h-1.5v-12.6h1.4v2.4c.5-.8,1.1-1.5,1.9-1.9s1.8-.7,2.9-.7c1.6,0,2.9.5,3.8,1.5.9,1,1.4,2.3,1.4,4v7.3Z"/>
        <path d="M480.3,92.7h-1.7l2.7-6.4-5.9-12.5h1.7l5,10.7,4.4-10.7h1.7l-7.8,18.9Z"/>
      </g>
    </g>
  </g>
</svg>
